<svg xmlns="http://www.w3.org/2000/svg" width="975" height="675" viewBox="0 0 39 27">
  <g>
    <path d="M15,0H39V1.5H15Z" fill="#FFF8E7"/>
    <path d="M0,25.5H24V27H0Z" fill="#FFF8E7"/>
    <path d="M2.44245,0A3.76869,3.76869,0,0,1,4.59669.54,1.86546,1.86546,0,0,1,5.38837,2.1958a2.194,2.194,0,0,1-.35563,1.26611,2.30621,2.30621,0,0,1-.976.80371,3.74466,3.74466,0,0,1-1.45448.30616L2.381,3.82764a5.13906,5.13906,0,0,1,1.76765.30615,2.90609,2.90609,0,0,1,1.22172.82812,1.90927,1.90927,0,0,1,.448,1.26612,2.44742,2.44742,0,0,1-.25174,1.15771,2.16624,2.16624,0,0,1-.68129.77393,2.95032,2.95032,0,0,1-.97.438,4.53048,4.53048,0,0,1-1.12932.13818H0V0Zm.22126,3.71973a1.15987,1.15987,0,0,0,.951-.36573,1.3098,1.3098,0,0,0,.30069-.85839,1.00949,1.00949,0,0,0-.38061-.876,1.72532,1.72532,0,0,0-1.03092-.27588H1.436v2.376Zm.06094,3.72021a2.53047,2.53047,0,0,0,.82264-.126,1.27529,1.27529,0,0,0,.58938-.396,1.036,1.036,0,0,0,.22077-.67822.94534.94534,0,0,0-.25773-.708,1.46348,1.46348,0,0,0-.65082-.35986A3.07579,3.07579,0,0,0,2.62675,5.064H1.436v2.376Z" fill="#FFF8E7"/>
    <path d="M39,18.26465V27H36.4542a5.84566,5.84566,0,0,1-2.26906-.39551,4.15653,4.15653,0,0,1-1.51887-1.04394,4.09577,4.09577,0,0,1-.84277-1.44629,5.07124,5.07124,0,0,1-.26424-1.60156,4.20051,4.20051,0,0,1,.35683-1.76465,4.03472,4.03472,0,0,1,.97738-1.33789,4.32839,4.32839,0,0,1,1.42679-.85157,4.92517,4.92517,0,0,1,1.70355-.29394ZM37.5612,19.6084H36.282a4.08431,4.08431,0,0,0-1.30368.19824,3.0154,3.0154,0,0,0-1.02693.57617,2.54349,2.54349,0,0,0-.67661.94141,3.61721,3.61721,0,0,0,.037,2.68262,2.69382,2.69382,0,0,0,.72566.94726,3.04774,3.04774,0,0,0,.97788.54,3.32386,3.32386,0,0,0,1.04545.17383H37.5612Z" fill="#FFF8E7"/>
  </g>
</svg>
