<svg xmlns="http://www.w3.org/2000/svg" viewBox="0 0 39 27">
  <g id="Layer_2" data-name="Layer 2">
    <g id="logo">
      <path id="bar_top" data-name="bar top" d="M15,0H37.62V1.5H15Z"/>
      <path id="bar_bottom" data-name="bar bottom" d="M1.38,25.5H24V27H1.38Z"/>
      <path id="D_masked" data-name="D masked" d="M39,18.3V27H36.5a5.55791,5.55791,0,0,1-2.3-.4,4.359,4.359,0,0,1-1.5-1,2.85092,2.85092,0,0,1-.8-1.4,4.52944,4.52944,0,0,1-.3-1.6,3.66141,3.66141,0,0,1,.4-1.8,3.24877,3.24877,0,0,1,1-1.3,4.19454,4.19454,0,0,1,1.4-.9,4.67118,4.67118,0,0,1,1.7-.3Zm-1.4,1.3H36.3a5.06664,5.06664,0,0,0-1.3.2,2.075,2.075,0,0,0-1,.6,5.495,5.495,0,0,0-.7.9,2.74479,2.74479,0,0,0-.2,1.3,3.194,3.194,0,0,0,.3,1.4,2.17763,2.17763,0,0,0,.7.9,3.128,3.128,0,0,0,1,.5,4.401,4.401,0,0,0,1,.2h1.5Z"/>
      <path id="B_masked" data-name="B masked" d="M2.4,0A4.76713,4.76713,0,0,1,4.6.5a2.00039,2.00039,0,0,1,.8,1.7A2.00984,2.00984,0,0,1,5,3.5a2.72278,2.72278,0,0,1-1,.8,2.90406,2.90406,0,0,1-1.4.3l-.2-.8a4.84429,4.84429,0,0,1,1.8.3A2.73,2.73,0,0,1,5.4,5a2.00984,2.00984,0,0,1,.4,1.3,2.3754,2.3754,0,0,1-.3,1.2,1.874,1.874,0,0,1-.6.7,2.99463,2.99463,0,0,1-1,.4,3.74953,3.74953,0,0,1-1.1.1H0V0Zm.3,3.7a1.15948,1.15948,0,0,0,1-.4A1.22235,1.22235,0,0,0,4,2.4a.97479.97479,0,0,0-.4-.9,1.68938,1.68938,0,0,0-1-.3H1.4V3.6H2.7Zm0,3.7a1.94945,1.94945,0,0,0,.8-.1.91826.91826,0,0,0,.6-.4,1.44531,1.44531,0,0,0,.2-.7A.90783.90783,0,0,0,4,5.5a.85468.85468,0,0,0-.6-.3,1.94945,1.94945,0,0,0-.8-.1H1.4V7.5H2.7Z"/>
    </g>
  </g>
</svg>
